<?xml version="1.0" encoding="UTF-8"?><svg id="Layer_2" xmlns="http://www.w3.org/2000/svg" viewBox="0 0 180.14 180.14"><g id="Layer_1-2"><rect x=".25" y=".25" width="179.64" height="179.64" fill="#fff" stroke="gray" stroke-miterlimit="10" stroke-width=".5"/><path d="M37.55,79.25h0c.37.37.66.8.85,1.27v.02s.03.04.03.04c.19.46.29.96.29,1.49s-.1,1.03-.29,1.49l-.02.05v.02c-.2.46-.49.89-.86,1.27l-16,16c-1.55,1.55-4.09,1.55-5.64,0h0c-1.55-1.55-1.55-4.09,0-5.64l9.19-9.19h-6.33c-2.2,0-3.99-1.8-3.99-3.99s1.8-3.99,3.99-3.99h15.97c.53,0,1.03.1,1.49.29h.03s.03.03.03.03c.46.19.89.48,1.26.85" fill="#00d666" fill-rule="evenodd"/><path d="M34.73,94.08c2.2,0,3.99,1.79,3.99,3.99,0,2.2-1.79,3.99-3.99,3.99-2.2,0-3.99-1.79-3.99-3.99s1.79-3.99,3.99-3.99" fill="#141414" fill-rule="evenodd"/><path d="M53.01,97.59v-3.45l7.97-7.28v-.38h-7.7v-2.38h10.76v3.48l-8,7.28v.36h8.22v2.38h-11.26Z" fill="#141414"/><path d="M72.95,97.84c-1.02,0-1.94-.23-2.74-.68-.8-.46-1.43-1.1-1.89-1.94-.46-.84-.68-1.84-.68-3.01v-8.11h2.82v7.91c0,1.17.29,2.03.88,2.59.58.56,1.4.84,2.44.84,1.15,0,2.08-.39,2.78-1.16.7-.78,1.05-1.89,1.05-3.35v-6.82h2.82v13.5h-2.77v-2.03h-.44c-.26.55-.71,1.06-1.37,1.55-.66.48-1.63.73-2.9.73Z" fill="#141414"/><path d="M84.59,97.59v-13.5h2.77v1.59h.44c.22-.57.57-.98,1.05-1.25.48-.26,1.08-.4,1.79-.4h1.62v2.55h-1.73c-.91,0-1.66.25-2.25.75-.58.5-.88,1.27-.88,2.31v7.94h-2.82Z" fill="#141414"/><path d="M96.61,82.25c-.55,0-1.01-.18-1.38-.53-.37-.36-.56-.82-.56-1.38s.19-1.03.56-1.38c.37-.36.84-.53,1.38-.53s1.03.18,1.4.53c.36.36.55.82.55,1.38s-.18,1.03-.55,1.38c-.37.36-.83.53-1.4.53ZM95.18,97.59v-13.5h2.82v13.5h-2.82Z" fill="#141414"/><path d="M108.47,97.97c-1.3,0-2.47-.27-3.52-.82-1.05-.55-1.88-1.34-2.49-2.38-.61-1.04-.92-2.29-.92-3.75v-.36c0-1.46.31-2.71.92-3.74.61-1.03,1.44-1.83,2.49-2.38,1.05-.56,2.22-.84,3.52-.84s2.4.24,3.31.71c.91.47,1.65,1.1,2.2,1.89.56.79.92,1.65,1.08,2.6l-2.74.58c-.09-.6-.28-1.15-.57-1.64-.29-.49-.7-.89-1.23-1.18-.53-.29-1.2-.44-2-.44s-1.49.18-2.12.53c-.63.36-1.13.87-1.49,1.53-.37.67-.55,1.47-.55,2.42v.25c0,.95.18,1.76.55,2.44.36.68.86,1.19,1.49,1.53.63.35,1.34.52,2.12.52,1.19,0,2.09-.31,2.71-.92.62-.61,1.01-1.39,1.18-2.34l2.74.63c-.22.93-.61,1.79-1.16,2.57-.56.78-1.29,1.41-2.2,1.88-.91.47-2.02.7-3.31.7Z" fill="#141414"/><path d="M124.73,97.97c-1.35,0-2.55-.28-3.6-.84-1.05-.56-1.88-1.36-2.48-2.4s-.9-2.27-.9-3.7v-.41c0-1.42.3-2.65.9-3.68.6-1.03,1.43-1.83,2.48-2.4,1.05-.57,2.25-.85,3.6-.85s2.56.28,3.61.85c1.06.57,1.89,1.37,2.49,2.4.6,1.03.9,2.26.9,3.68v.41c0,1.42-.3,2.66-.9,3.7-.6,1.04-1.43,1.84-2.49,2.4-1.06.56-2.26.84-3.61.84ZM124.73,95.45c1.24,0,2.25-.4,3.03-1.19.78-.79,1.16-1.89,1.16-3.3v-.25c0-1.41-.38-2.51-1.15-3.3-.77-.79-1.78-1.19-3.04-1.19s-2.22.4-3,1.19c-.78.79-1.16,1.89-1.16,3.3v.25c0,1.41.39,2.51,1.16,3.3.78.79,1.78,1.19,3,1.19Z" fill="#141414"/><path d="M140.83,97.97c-1.11,0-2.15-.27-3.09-.82-.95-.55-1.71-1.34-2.29-2.37-.57-1.03-.86-2.28-.86-3.74v-.41c0-1.44.28-2.68.85-3.72.57-1.04,1.32-1.83,2.27-2.38s1.99-.82,3.12-.82c.88,0,1.61.11,2.2.33.59.22,1.08.5,1.46.84.38.34.68.69.88,1.05h.44v-7.5h2.82v19.17h-2.77v-1.92h-.44c-.35.58-.87,1.11-1.57,1.59-.7.47-1.71.71-3.03.71ZM141.63,95.51c1.22,0,2.23-.39,3.03-1.18.79-.78,1.19-1.91,1.19-3.37v-.25c0-1.44-.39-2.56-1.18-3.34-.79-.78-1.8-1.18-3.04-1.18s-2.2.39-3,1.18c-.79.79-1.19,1.9-1.19,3.34v.25c0,1.46.4,2.58,1.19,3.37.79.79,1.79,1.18,3,1.18Z" fill="#141414"/><path d="M158.99,97.97c-1.37,0-2.57-.29-3.59-.86-1.02-.58-1.82-1.39-2.4-2.44-.57-1.05-.86-2.27-.86-3.66v-.33c0-1.41.28-2.63.85-3.68.57-1.05,1.36-1.86,2.37-2.44,1.01-.58,2.19-.86,3.52-.86s2.43.29,3.41.86c.98.57,1.74,1.37,2.29,2.4.55,1.02.82,2.22.82,3.59v1.07h-10.38c.04,1.19.43,2.13,1.19,2.83.76.7,1.7,1.05,2.83,1.05,1.06,0,1.86-.24,2.4-.71.54-.47.95-1.02,1.25-1.64l2.33,1.2c-.26.51-.63,1.05-1.11,1.62-.48.57-1.12,1.04-1.9,1.42-.79.38-1.79.57-3.01.57ZM155.05,89.46h7.48c-.07-1.02-.44-1.82-1.1-2.4-.66-.58-1.52-.86-2.57-.86s-1.92.29-2.59.86c-.67.57-1.07,1.37-1.22,2.4Z" fill="#141414"/></g></svg>